<svg xmlns="http://www.w3.org/2000/svg" viewBox="0 0 480 320" role="img" aria-label="AI learning illustration">
  <defs>
    <linearGradient id="bg" x1="0" y1="0" x2="1" y2="1">
      <stop offset="0%" stop-color="#6a8dff"/>
      <stop offset="100%" stop-color="#3f63dd"/>
    </linearGradient>
    <linearGradient id="panel" x1="0" y1="0" x2="0" y2="1">
      <stop offset="0%" stop-color="#1f2440"/>
      <stop offset="100%" stop-color="#171b2e"/>
    </linearGradient>
  </defs>
  <rect width="480" height="320" rx="24" fill="url(#bg)"/>
  <rect x="42" y="40" width="396" height="240" rx="18" fill="url(#panel)" opacity="0.95"/>
  <rect x="72" y="72" width="170" height="18" rx="9" fill="#9fb2ff"/>
  <rect x="72" y="102" width="220" height="12" rx="6" fill="#6b7399"/>
  <rect x="72" y="124" width="190" height="12" rx="6" fill="#6b7399"/>
  <circle cx="332" cy="124" r="42" fill="#2bb673" opacity="0.9"/>
  <circle cx="332" cy="124" r="24" fill="#171b2e"/>
  <circle cx="320" cy="117" r="4" fill="#9fb2ff"/>
  <circle cx="344" cy="117" r="4" fill="#9fb2ff"/>
  <path d="M316 136c8 8 24 8 32 0" stroke="#9fb2ff" stroke-width="4" stroke-linecap="round" fill="none"/>
  <rect x="72" y="164" width="320" height="76" rx="12" fill="#22294b"/>
  <rect x="90" y="182" width="120" height="10" rx="5" fill="#6a8dff"/>
  <rect x="90" y="202" width="280" height="10" rx="5" fill="#6b7399"/>
  <rect x="90" y="220" width="240" height="10" rx="5" fill="#6b7399"/>
</svg>